<svg xmlns="http://www.w3.org/2000/svg" version="1.1" xmlns:xlink="http://www.w3.org/1999/xlink" xmlns:svgjs="http://svgjs.com/svgjs" width="512" height="512" x="0" y="0" viewBox="0 0 512 512" style="enable-background:new 0 0 512 512" xml:space="preserve" class=""><g><g xmlns="http://www.w3.org/2000/svg"><path d="m406.101 370.851h23.727c6.777 0 12.291-5.514 12.291-12.291v-24.171h24.171c6.777 0 12.291-5.514 12.291-12.291v-23.727c0-6.777-5.514-12.291-12.291-12.291h-24.171v-24.171c0-6.777-5.514-12.291-12.291-12.291h-23.727c-6.777 0-12.291 5.514-12.291 12.291v24.171h-24.171c-6.777 0-12.291 5.514-12.291 12.291v23.727c0 6.777 5.514 12.291 12.291 12.291h24.171v24.171c0 6.777 5.513 12.291 12.291 12.291zm-33.753-51.462v-18.309h27.045c5.192 0 9.417-4.225 9.417-9.417v-27.045h18.309v27.045c0 5.192 4.224 9.417 9.417 9.417h27.045v18.309h-27.045c-5.192 0-9.417 4.225-9.417 9.417v27.045h-18.309v-27.045c0-5.192-4.224-9.417-9.417-9.417z" fill="#000000" data-original="#000000" class=""></path><path d="m489.95 125.85c12.159 0 22.05-9.892 22.05-22.05v-33.866c0-12.158-9.892-22.05-22.05-22.05h-222.431c-12.158 0-22.05 9.892-22.05 22.05v33.866c0 12.158 9.892 22.05 22.05 22.05h11.37v31.77c0 .136-.145.273-.34.326-19.478 5.332-33.081 23.172-33.081 43.385v8.949c-17.471-15.504-44.307-14.899-61.038 1.831l-8.887 8.887c-2.929 2.93-2.929 7.678 0 10.607 2.929 2.928 7.678 2.928 10.606 0l8.887-8.887c11.519-11.52 30.261-11.52 41.78 0 5.575 5.574 8.647 12.985 8.652 20.87v.04c-.005 7.883-3.077 15.294-8.652 20.869l-45.639 45.638-41.779-41.779 12.01-12.01c2.929-2.93 2.929-7.678 0-10.607-2.929-2.928-7.678-2.928-10.606 0l-68.255 68.255c-8.413 8.413-13.046 19.599-13.046 31.496 0 11.001 3.968 21.389 11.215 29.543h-36.174c-24.561-.002-44.542 19.98-44.542 44.541s19.981 44.542 44.542 44.542h11.781c4.142 0 7.5-3.357 7.5-7.5s-3.358-7.5-7.5-7.5h-11.781c-16.29 0-29.542-13.253-29.542-29.542 0-16.29 13.253-29.543 29.542-29.543h64.542v59.085h-17.761c-4.142 0-7.5 3.357-7.5 7.5s3.358 7.5 7.5 7.5h97.304c24.561 0 44.542-19.981 44.542-44.542 0-24.562-19.981-44.543-44.542-44.543h-41.134l97.975-97.974v142.084c0 24.796 20.174 44.97 44.971 44.97h176.591c24.797 0 44.97-20.174 44.97-44.97v-135.181c0-4.143-3.358-7.5-7.5-7.5s-7.5 3.357-7.5 7.5v105.209h-124.046c-18.762 0-34.026-15.264-34.026-34.025v-89.818c0-18.762 15.264-34.025 34.026-34.025h124.046v17.66c0 4.143 3.358 7.5 7.5 7.5s7.5-3.357 7.5-7.5v-47.63c0-20.213-13.603-38.053-33.077-43.384-.199-.055-.343-.192-.343-.327v-31.77zm-396.797 240.528c-5.58-5.579-8.652-12.998-8.652-20.89 0-7.891 3.073-15.31 8.652-20.889l45.638-45.638 41.779 41.779-45.638 45.638c-5.58 5.58-12.999 8.653-20.89 8.653s-15.309-3.073-20.889-8.653zm125.016 53.196c0 16.289-13.253 29.542-29.542 29.542h-64.542v-59.085h64.542c16.29 0 29.542 13.253 29.542 29.543zm278.831-349.64v33.866c0 3.888-3.163 7.05-7.05 7.05h-19.366v-47.966h19.366c3.887 0 7.05 3.162 7.05 7.05zm-68.591 40.916v-47.966h27.174v47.966zm-42.175 0v-47.966h27.175v47.966zm-42.174 0v-47.966h27.174v47.966zm-42.174 0v-47.966h27.174v47.966zm-41.417-7.05v-33.866c0-3.888 3.163-7.05 7.05-7.05h19.367v47.966h-19.367c-3.888 0-7.05-3.162-7.05-7.05zm214.491 68.614c12.977 3.552 22.04 15.442 22.04 28.916v14.97h-124.046c-27.033 0-49.026 21.993-49.026 49.025v89.818c0 27.032 21.993 49.025 49.026 49.025h124.046v14.973c0 16.525-13.445 29.97-29.97 29.97h-176.592c-16.526 0-29.971-13.444-29.971-29.97v-217.811c0-13.474 9.063-25.364 22.044-28.917 6.698-1.837 11.376-7.921 11.376-14.794v-31.77h169.693v31.77c0 6.874 4.678 12.957 11.38 14.795z" fill="#000000" data-original="#000000" class=""></path></g></g></svg>