<svg xmlns="http://www.w3.org/2000/svg" version="1.1" xmlns:xlink="http://www.w3.org/1999/xlink" xmlns:svgjs="http://svgjs.com/svgjs" width="512" height="512" x="0" y="0" viewBox="0 0 512.001 512.001" style="enable-background:new 0 0 512 512" xml:space="preserve" class=""><g>
<g xmlns="http://www.w3.org/2000/svg">
	<g>
		<path d="M487.221,198.195h-32.332l5.118-62.865c2.749,0.726,5.574,1.094,8.406,1.094c6.192,0,12.409-1.748,17.898-5.284    c10.455-6.734,16.09-18.554,15.029-30.614c8.92-8.187,12.732-20.712,9.557-32.737c-3.175-12.025-12.673-21.036-24.473-23.753    c-5.03-11.013-15.764-18.51-28.182-19.206c-12.617-0.705-24.277,5.766-30.434,16.448c-3.28-0.035-6.561,0.435-9.736,1.38    c-0.372-1.975-0.914-3.918-1.644-5.8c-4.5-11.594-14.945-19.487-26.974-20.867c-6.23-10.382-17.734-16.632-30.152-15.935    c-12.417,0.696-23.152,8.193-28.182,19.206c-11.799,2.717-21.297,11.727-24.473,23.753c-3.175,12.025,0.637,24.55,9.557,32.737    c-1.062,12.062,4.573,23.879,15.027,30.614c5.491,3.538,11.706,5.284,17.899,5.284c2.802,0,5.597-0.359,8.319-1.07    c0.149,0.551,0.296,1.102,0.474,1.651c0.6,1.845,1.365,3.596,2.247,5.267l10.317,80.698h-31.909    c-13.66,0-24.774,11.114-24.774,24.774v86.494c-1.963-1.465-4.059-2.789-6.308-3.914l-10.208-5.103v-11.413    c0-10.766-6.904-19.95-16.516-23.359v-26.189c0-10.765-6.905-19.945-16.516-23.354V195.59c0-26.574-18.005-49.635-43.786-56.08    l-22.278-5.569V99.099h8.258c13.661,0,24.774-11.113,24.774-24.774V57.809c0-13.661-11.113-24.774-24.774-24.774h-99.096    c-13.661,0-24.774,11.113-24.774,24.774v16.516c0,13.661,11.113,24.774,24.774,24.774h8.258v34.842l-22.278,5.57    c-25.78,6.444-43.786,29.506-43.786,56.079v209.054c0,4.049,0.423,8.002,1.219,11.819C16.637,426.482,0,438.858,0,454.192    c0,18.014,24.147,32.514,71.771,43.097c42.683,9.485,99.312,14.708,159.452,14.708s116.769-5.224,159.452-14.708    c40.114-8.914,63.569-20.608,69.97-34.839h26.575c13.661,0,24.774-11.114,24.774-24.774V421.16v-66.064V222.969    C511.995,209.309,500.881,198.195,487.221,198.195z M402.021,377.111l-16.515,19.268l16.516,19.27l-16.516,19.272l9.439,11.014    h-23.336c-4.553,0-8.258-3.705-8.258-8.258v-82.58c0-4.553,3.705-8.258,8.258-8.258h23.334l-9.438,11.01L402.021,377.111z     M396.383,330.322v-8.258c0-4.553,3.705-8.258,8.258-8.258h49.548c4.553,0,8.258,3.705,8.258,8.258v8.258H396.383z     M454.189,297.29h-49.548c-13.661,0-24.774,11.114-24.774,24.774v8.258h-8.258c-13.661,0-24.774,11.114-24.774,24.774v57.806    h-8.258c-4.553,0-8.258-3.705-8.258-8.258v-62.165v-94.737h165.16v84c-2.585-0.917-5.364-1.42-8.258-1.42h-8.258v-8.258    C478.963,308.405,467.85,297.29,454.189,297.29z M421.157,198.195v-47.079c8.971-2.302,16.603-8.272,20.955-16.542    c0.475-0.082,0.94-0.191,1.409-0.292l-5.202,63.913H421.157z M373.63,107.127c-2.218-6.827,0.192-14.248,5.997-18.465l4.856-3.527    l-1.855-5.707c-2.218-6.824,0.194-14.244,6.001-18.464s13.61-4.222,19.416-0.002l4.854,3.528l4.855-3.528    c5.805-4.219,13.606-4.218,19.415,0.002c5.807,4.22,8.22,11.64,6.001,18.464l-1.856,5.708l4.857,3.527    c5.806,4.216,8.216,11.637,5.998,18.465c-2.218,6.827-8.528,11.414-15.704,11.414h-0.002l-6.001-0.001l-1.854,5.708    c-2.216,6.825-8.529,11.41-15.708,11.41c-7.178,0-13.491-4.585-15.708-11.41l-1.854-5.708l-6.001,0.001c-0.001,0-0.002,0-0.002,0    C382.159,118.539,375.848,113.953,373.63,107.127z M457.316,41.32c7.168,0.403,13.214,5.334,15.044,12.272l1.531,5.803    l5.992,0.334c7.165,0.401,13.21,5.334,15.042,12.275c1.832,6.941-0.989,14.215-7.021,18.099l-5.047,3.25l1.533,5.803    c1.833,6.938-0.99,14.211-7.025,18.099c-3.904,2.516-8.543,3.211-12.838,2.167c1.373-2.221,2.514-4.621,3.349-7.193    c3.843-11.827,0.738-24.547-7.71-33.221c1.736-11.982-3.228-24.098-13.29-31.408c-0.713-0.518-1.444-0.996-2.185-1.45    C447.941,42.885,452.486,41.049,457.316,41.32z M340.174,92.482c-6.035-3.888-8.859-11.162-7.025-18.099l1.533-5.803l-5.047-3.25    c-6.032-3.884-8.855-11.159-7.021-18.099c1.832-6.942,7.877-11.874,15.042-12.275l5.992-0.334l1.531-5.803    c1.83-6.939,7.876-11.87,15.044-12.272c7.163-0.399,13.727,3.823,16.323,10.513l2.171,5.595l5.992-0.337    c6.613-0.365,12.705,3.209,15.646,9.026c-7.467-0.458-15.053,1.622-21.434,6.259c-10.061,7.31-15.026,19.425-13.29,31.408    c-3.806,3.908-6.516,8.64-8.006,13.739C352.287,95.968,345.539,95.936,340.174,92.482z M378.846,133.347    c1.57,0.523,3.183,0.943,4.84,1.228c4.352,8.268,11.984,14.239,20.955,16.542v47.078h-17.505L378.846,133.347z M338.577,214.711    h148.644c4.553,0,8.258,3.705,8.258,8.258v8.258h-165.16v-8.258C330.319,218.415,334.024,214.711,338.577,214.711z     M300.108,320.321c8.448,4.224,13.695,12.714,13.695,22.159v62.164v33.032c0,13.66-11.113,24.774-24.774,24.774h-66.064    c-13.661,0-24.774-11.114-24.774-24.774v-95.197c0-9.444,5.247-17.935,13.695-22.159l13.028-6.513h62.165L300.108,320.321z     M182.507,445.934h-75.153c-19.94,0-36.623-14.209-40.459-33.032h114.781v24.774C181.676,440.503,181.963,443.266,182.507,445.934    z M181.676,396.386H66.064V214.711h181.676v1.42c-9.611,3.408-16.516,12.588-16.516,23.354v26.189    c-9.613,3.408-16.516,12.592-16.516,23.359v11.413l-2.87,1.435c-1.456-4.477-3.433-8.783-5.917-12.759l-29.382-47.011    c-4.26-6.815-11.6-10.884-19.637-10.884s-15.378,4.069-19.637,10.884l-29.382,47.011c-5.749,9.197-8.786,19.791-8.786,30.638    v2.305c0,31.875,25.932,57.806,57.806,57.806c8.652,0,17.096-1.943,24.774-5.589V396.386z M181.676,342.48v12.605    c-7.124,5.352-15.793,8.27-24.774,8.27c-22.767,0-41.29-18.523-41.29-41.29v-2.305c0-7.748,2.171-15.315,6.276-21.884    l29.382-47.011c1.221-1.955,3.327-3.122,5.632-3.122s4.41,1.166,5.632,3.122l29.382,47.011c2.379,3.806,4.127,8.033,5.163,12.422    C187.416,318.027,181.676,329.731,181.676,342.48z M280.771,289.032v8.258h-49.548v-8.258c0-4.553,3.705-8.258,8.258-8.258h8.258    v-41.29c0-4.553,3.705-8.258,8.258-8.258s8.258,3.705,8.258,8.258v41.29h8.258C277.067,280.774,280.771,284.479,280.771,289.032z     M99.096,74.325V57.809c0-4.553,3.705-8.258,8.258-8.258h99.096c4.553,0,8.258,3.705,8.258,8.258v16.516    c0,4.553-3.705,8.258-8.258,8.258h-99.096C102.801,82.583,99.096,78.878,99.096,74.325z M97.34,155.534l27.547-6.887h40.273    v-16.516h-33.032V99.099h49.548v47.737l34.788,8.698c18.415,4.604,31.276,21.075,31.276,40.056v2.604H66.064v-2.604    C66.064,176.609,78.925,160.138,97.34,155.534z M387.093,481.167c-41.543,9.232-96.898,14.315-155.869,14.315    s-114.327-5.084-155.869-14.315C28.813,470.825,16.516,459,16.516,454.192c0-3.821,8.548-13.078,39.935-22.182    c9.773,18.108,28.924,30.44,50.903,30.44h82.603c7.541,10.022,19.53,16.516,33.009,16.516h66.064    c22.767,0,41.29-18.523,41.29-41.29v-9.678c2.585,0.917,5.364,1.42,8.258,1.42h8.258v8.258c0,13.66,11.113,24.774,24.774,24.774    h67.49C431.243,467.944,415.598,474.832,387.093,481.167z M495.479,437.676c0,4.553-3.705,8.258-8.258,8.258h-70.523l-9.44-11.014    l16.516-19.272l-16.516-19.27l16.517-19.27l-16.516-19.262l9.438-11.008h70.524c4.553,0,8.258,3.705,8.258,8.258v66.064V437.676z" fill="#000000" data-original="#000000" class=""></path>
		<path d="M280.771,346.838h-49.548v16.516h-16.516v49.548h16.516v16.516h49.548v-16.516h16.516v-49.548h-16.516V346.838z     M280.771,396.386h-16.516v16.516h-16.516v-16.516h-16.516V379.87h16.516v-16.516h16.516v16.516h16.516V396.386z" fill="#000000" data-original="#000000" class=""></path>
	</g>
</g>















</g></svg>